<svg xmlns="http://www.w3.org/2000/svg" width="37.613" height="37.632" viewBox="0 0 37.613 37.632">
  <g id="组_883" data-name="组 883" transform="translate(-724 -2425.29)">
    <path id="路径_154" data-name="路径 154" d="M733.385,2439.4a2.346,2.346,0,1,0,2.346-2.346,2.346,2.346,0,0,0-2.346,2.346Zm14.133,0a2.346,2.346,0,1,0,.687-1.659,2.346,2.346,0,0,0-.687,1.659Zm-4.711,15.3a10.73,10.73,0,0,1-8.484-4.242,18.781,18.781,0,0,1-1.652-3.059,1.438,1.438,0,0,1,.713-1.652,1.128,1.128,0,0,1,1.408.713,7.07,7.07,0,0,0,1.182,2.346,8.61,8.61,0,0,0,6.832,3.529,7.917,7.917,0,0,0,6.588-3.3,11.979,11.979,0,0,0,1.182-2.346,1.117,1.117,0,1,1,2.121.695,7.716,7.716,0,0,1-1.652,3.059,9.9,9.9,0,0,1-8.24,4.26Zm0,8.221a18.816,18.816,0,1,1,18.807-18.807,18.95,18.95,0,0,1-18.807,18.807Zm0-35.117a16.269,16.269,0,1,0,11.533,4.772,16.3,16.3,0,0,0-11.533-4.772Zm0,0"/>
  </g>
</svg>
