<svg xmlns="http://www.w3.org/2000/svg" xmlns:xlink="http://www.w3.org/1999/xlink" width="40" height="37.668" viewBox="0 0 40 37.668">
  <defs>
    <clipPath id="clip-path">
      <rect id="矩形_187" data-name="矩形 187" width="40" height="37.668" fill="none"/>
    </clipPath>
  </defs>
  <g id="组_1087" data-name="组 1087" transform="translate(-730 -2455.29)">
    <path id="路径_201" data-name="路径 201" d="M1027.8,2537.33l-.522.323a.614.614,0,1,1-.646-1.043l.522-.323a.614.614,0,0,1,.646,1.044" transform="translate(-281.678 -76.73)" fill="#fff"/>
    <path id="路径_202" data-name="路径 202" d="M843.547,2482.343a17.995,17.995,0,1,1-32.138-11.178,17.791,17.791,0,0,1,14.12-6.864,18.026,18.026,0,0,1,18.018,18.042" transform="translate(-73.556 -8.546)" fill="#f5e435"/>
    <path id="路径_203" data-name="路径 203" d="M1088.535,2470.078a23.542,23.542,0,0,0-2.609.167c9.169,1.215,16.227,8.747,16.227,17.875s-7.058,16.659-16.227,17.875a18.724,18.724,0,0,0,2.609.167c10.387,0,18.811-8.08,18.811-18.042s-8.424-18.042-18.811-18.042" transform="translate(-339.194 -14.025)" fill="#e6c61f"/>
    <g id="组_1086" data-name="组 1086" transform="translate(730 2455.29)">
      <g id="组_1085" data-name="组 1085" transform="translate(0 0)" clip-path="url(#clip-path)">
        <path id="路径_204" data-name="路径 204" d="M903.576,2538.425l-3.557,2.387a.967.967,0,0,1-1.385-.334,1.142,1.142,0,0,1,.31-1.48l3.557-2.387a.968.968,0,0,1,1.385.334,1.142,1.142,0,0,1-.31,1.48m2.65-1.623-.5.31a.59.59,0,1,1-.621-1l.5-.311a.587.587,0,0,1,.812.191.614.614,0,0,1-.191.812" transform="translate(-890.133 -2531.723)" fill="#fff"/>
        <path id="路径_205" data-name="路径 205" d="M731.649,2470.128a.868.868,0,0,0,.812-.621,16.734,16.734,0,0,1,2.7-5.324.86.86,0,0,0-.74-1.385H734.4a.9.9,0,0,0-.621.334,18.093,18.093,0,0,0-2.937,5.873.846.846,0,0,0,.812,1.122h0m35.812,2.005A18.787,18.787,0,0,0,738,2459a.857.857,0,0,0,.549,1.552h.024a.837.837,0,0,0,.43-.143,17.047,17.047,0,0,1,25.474,20.652.858.858,0,0,0,.454,1.146h.024a.855.855,0,0,0,1.1-.43,18.554,18.554,0,0,0,1.409-9.645m-3.677,12.3-.048-.048a.848.848,0,0,0-1.218.143,15.112,15.112,0,0,1-1.5,1.767.852.852,0,0,0,.072,1.241h.024a.846.846,0,0,0,1.146-.048,18.552,18.552,0,0,0,1.671-1.958.845.845,0,0,0-.143-1.1m-5.658,4.226a16.778,16.778,0,0,1-7.52,2.7c-8.046.859-16.521-5.229-18.431-13.107a16.276,16.276,0,0,1-.406-4.87.866.866,0,0,0-.859-.907.842.842,0,0,0-.86.788,16.945,16.945,0,0,0,.048,3.1,18.774,18.774,0,0,0,28.984,13.752.854.854,0,0,0,.191-1.266v-.023a.879.879,0,0,0-1.146-.167" transform="translate(-730.001 -2455.571)" fill="#3a3a3a"/>
      </g>
    </g>
    <path id="路径_206" data-name="路径 206" d="M917.313,2753.025l-4.457.845a.949.949,0,0,1-1.086-.82,1.007,1.007,0,0,1,.762-1.168l4.457-.845a.948.948,0,0,1,1.085.821.981.981,0,0,1-.762,1.168Zm14.826.869-4.457-.845a1.007,1.007,0,0,1-.762-1.168.948.948,0,0,1,1.086-.82l4.457.845a1.007,1.007,0,0,1,.762,1.168.992.992,0,0,1-1.085.82Zm0,0" transform="translate(-172.377 -281.118)" fill="#5a5b5b"/>
    <path id="路径_207" data-name="路径 207" d="M1245.332,3152.5h6.063" transform="translate(-489.963 -662.777)" fill="#8ed2ea"/>
    <path id="路径_208" data-name="路径 208" d="M1122.233,2949.166a.668.668,0,0,1-.671-.671v-3.852a.671.671,0,0,1,1.342,0v3.852a.668.668,0,0,1-.671.671Zm0,0" transform="translate(-372.177 -464.608)" fill="#5a5b5b"/>
  </g>
</svg>
