<svg xmlns="http://www.w3.org/2000/svg" xmlns:xlink="http://www.w3.org/1999/xlink" width="40" height="37.668" viewBox="0 0 40 37.668">
  <defs>
    <clipPath id="clip-path">
      <rect id="矩形_188" data-name="矩形 188" width="40" height="37.668" fill="none"/>
    </clipPath>
  </defs>
  <g id="组_1091" data-name="组 1091" transform="translate(-1786 -2455.29)">
    <g id="组_1090" data-name="组 1090" transform="translate(1786 2455.29)">
      <path id="路径_209" data-name="路径 209" d="M2083.824,2537.348l-.53.328a.623.623,0,1,1-.656-1.06l.53-.328a.623.623,0,1,1,.656,1.06" transform="translate(-2067.688 -2531.954)" fill="#fff"/>
      <path id="路径_210" data-name="路径 210" d="M1899.483,2482.331a17.963,17.963,0,1,1-17.986-18.03,18,18,0,0,1,17.986,18.03" transform="translate(-1859.493 -2463.829)" fill="#ef886c"/>
      <path id="路径_211" data-name="路径 211" d="M2144.576,2470.078a24.413,24.413,0,0,0-2.65.167c9.314,1.215,16.483,8.741,16.483,17.863s-7.169,16.648-16.483,17.863a19.317,19.317,0,0,0,2.65.167c10.552,0,19.109-8.074,19.109-18.03s-8.557-18.03-19.109-18.03" transform="translate(-2125.563 -2469.303)" fill="#e25939"/>
      <g id="组_1089" data-name="组 1089" transform="translate(0 0)">
        <g id="组_1088" data-name="组 1088" clip-path="url(#clip-path)">
          <path id="路径_212" data-name="路径 212" d="M1959.576,2538.425l-3.557,2.387a.967.967,0,0,1-1.385-.334,1.142,1.142,0,0,1,.31-1.48l3.557-2.387a.967.967,0,0,1,1.385.334,1.142,1.142,0,0,1-.311,1.48m2.65-1.623-.5.31a.59.59,0,0,1-.621-1l.5-.311a.587.587,0,0,1,.812.191.615.615,0,0,1-.191.812" transform="translate(-1946.133 -2531.723)" fill="#fff"/>
          <path id="路径_213" data-name="路径 213" d="M1787.649,2470.128a.867.867,0,0,0,.812-.621,16.736,16.736,0,0,1,2.7-5.324.86.86,0,0,0-.74-1.385h-.024a.9.9,0,0,0-.621.334,18.094,18.094,0,0,0-2.937,5.873.846.846,0,0,0,.812,1.122h0m35.812,2.005A18.788,18.788,0,0,0,1794,2459a.857.857,0,0,0,.549,1.552h.024a.834.834,0,0,0,.43-.143,17.047,17.047,0,0,1,25.474,20.652.858.858,0,0,0,.454,1.146h.024a.855.855,0,0,0,1.1-.43,18.556,18.556,0,0,0,1.409-9.645m-3.677,12.3-.047-.048a.848.848,0,0,0-1.218.143,15.055,15.055,0,0,1-1.5,1.767.853.853,0,0,0,.072,1.241h.024a.846.846,0,0,0,1.146-.048,18.563,18.563,0,0,0,1.671-1.958.845.845,0,0,0-.143-1.1m-5.658,4.226a16.778,16.778,0,0,1-7.521,2.7c-8.046.86-16.521-5.229-18.431-13.107a16.282,16.282,0,0,1-.406-4.87.866.866,0,0,0-.859-.907.842.842,0,0,0-.86.788,16.909,16.909,0,0,0,.048,3.1,18.774,18.774,0,0,0,28.984,13.752.854.854,0,0,0,.191-1.266v-.024a.879.879,0,0,0-1.146-.167" transform="translate(-1786.001 -2455.571)" fill="#3a3a3a"/>
        </g>
      </g>
      <path id="路径_214" data-name="路径 214" d="M1973.237,2753.057l-4.4.858a.94.94,0,0,1-1.071-.833,1.023,1.023,0,0,1,.752-1.186l4.4-.858a.94.94,0,0,1,1.071.833,1,1,0,0,1-.752,1.186Zm14.624.883-4.4-.858a1.023,1.023,0,0,1-.752-1.186.94.94,0,0,1,1.071-.833l4.4.858a1.023,1.023,0,0,1,.752,1.187.983.983,0,0,1-1.071.833Zm0,0" transform="translate(-1958.229 -2736.427)" fill="#5a5b5b"/>
      <path id="路径_215" data-name="路径 215" d="M2301.332,3152.5h6.159" transform="translate(-2276.035 -3118.118)" fill="#8ed2ea"/>
      <path id="路径_216" data-name="路径 216" d="M2178.244,2949.249a.679.679,0,0,1-.682-.681v-3.912a.682.682,0,0,1,1.363,0v3.912a.679.679,0,0,1-.682.681Zm0,0" transform="translate(-2158.188 -2919.959)" fill="#5a5b5b"/>
    </g>
    <path id="路径_217" data-name="路径 217" d="M1970.469,2837.2a1.357,1.357,0,0,1-2.714,0c0-.75.607-2.555,1.357-2.555S1970.469,2836.451,1970.469,2837.2Z" transform="translate(-172.78 -360.666)" fill="#8ed2ea"/>
    <path id="路径_218" data-name="路径 218" d="M2369.663,2837.2a1.357,1.357,0,0,1-2.714,0c0-.75.607-2.555,1.357-2.555S2369.663,2836.451,2369.663,2837.2Z" transform="translate(-552.262 -360.666)" fill="#8ed2ea"/>
  </g>
</svg>
