<svg xmlns="http://www.w3.org/2000/svg" xmlns:xlink="http://www.w3.org/1999/xlink" width="40" height="37.668" viewBox="0 0 40 37.668">
  <defs>
    <clipPath id="clip-path">
      <rect id="矩形_189" data-name="矩形 189" width="40" height="37.668" fill="none"/>
    </clipPath>
  </defs>
  <g id="组_1095" data-name="组 1095" transform="translate(-3166 -2455.29)">
    <g id="组_1094" data-name="组 1094" transform="translate(3166 2455.29)">
      <path id="路径_219" data-name="路径 219" d="M3463.724,2537.27l-.494.306a.581.581,0,0,1-.612-.989l.494-.306a.581.581,0,1,1,.612.989" transform="translate(-3447.642 -2532.241)" fill="#fff"/>
      <path id="路径_220" data-name="路径 220" d="M3279.76,2482.385a18.1,18.1,0,1,1-18.125-18.084,18.095,18.095,0,0,1,18.125,18.084" transform="translate(-3239.769 -2463.861)" fill="#e86a4d"/>
      <path id="路径_221" data-name="路径 221" d="M3524.4,2470.078a21.137,21.137,0,0,0-2.471.167,18.128,18.128,0,0,1,0,35.833,16.71,16.71,0,0,0,2.471.167,18.086,18.086,0,0,0,0-36.168" transform="translate(-3503.962 -2469.355)" fill="#e25939"/>
      <g id="组_1093" data-name="组 1093" transform="translate(0 0)">
        <g id="组_1092" data-name="组 1092" clip-path="url(#clip-path)">
          <path id="路径_222" data-name="路径 222" d="M3339.576,2538.425l-3.557,2.387a.967.967,0,0,1-1.385-.334,1.142,1.142,0,0,1,.31-1.48l3.557-2.387a.968.968,0,0,1,1.385.334,1.142,1.142,0,0,1-.311,1.48m2.65-1.624-.5.31a.59.59,0,1,1-.621-1l.5-.311a.587.587,0,0,1,.812.191.615.615,0,0,1-.191.812" transform="translate(-3326.134 -2531.723)" fill="#fff"/>
          <path id="路径_223" data-name="路径 223" d="M3167.65,2470.128a.868.868,0,0,0,.812-.621,16.73,16.73,0,0,1,2.7-5.324.86.86,0,0,0-.74-1.385h-.024a.9.9,0,0,0-.621.334,18.094,18.094,0,0,0-2.937,5.873.846.846,0,0,0,.812,1.122h0m35.812,2.005A18.788,18.788,0,0,0,3174,2459a.857.857,0,0,0,.549,1.552h.024a.838.838,0,0,0,.43-.143,17.047,17.047,0,0,1,25.474,20.652.858.858,0,0,0,.454,1.146h.024a.854.854,0,0,0,1.1-.43,18.554,18.554,0,0,0,1.409-9.645m-3.677,12.3-.048-.048a.848.848,0,0,0-1.218.143,15.08,15.08,0,0,1-1.5,1.767.853.853,0,0,0,.072,1.241h.024a.846.846,0,0,0,1.146-.048,18.55,18.55,0,0,0,1.671-1.958.846.846,0,0,0-.143-1.1m-5.658,4.226a16.776,16.776,0,0,1-7.521,2.7c-8.045.859-16.521-5.229-18.431-13.107a16.282,16.282,0,0,1-.406-4.87.867.867,0,0,0-.86-.907.843.843,0,0,0-.859.788,16.945,16.945,0,0,0,.048,3.1,18.774,18.774,0,0,0,28.984,13.752.854.854,0,0,0,.191-1.266v-.024a.879.879,0,0,0-1.146-.167" transform="translate(-3166.001 -2455.571)" fill="#3a3a3a"/>
        </g>
      </g>
      <path id="路径_224" data-name="路径 224" d="M3353.566,2752.919l-4.661.8a.981.981,0,0,1-1.135-.777.96.96,0,0,1,.8-1.106l4.66-.8a.98.98,0,0,1,1.135.777.936.936,0,0,1-.8,1.106Zm15.5.824-4.66-.8a.96.96,0,0,1-.8-1.106.981.981,0,0,1,1.135-.777l4.66.8a.96.96,0,0,1,.8,1.106,1.028,1.028,0,0,1-1.135.776Zm0,0" transform="translate(-3338.873 -2736.344)" fill="#5a5b5b"/>
      <path id="路径_225" data-name="路径 225" d="M3681.332,3152.5h5.742" transform="translate(-3655.723 -3117.896)" fill="#8ed2ea"/>
      <path id="路径_226" data-name="路径 226" d="M3558.2,2948.891a.633.633,0,0,1-.635-.635v-3.648a.635.635,0,1,1,1.271,0v3.648a.633.633,0,0,1-.636.635Zm0,0" transform="translate(-3538.142 -2919.694)" fill="#5a5b5b"/>
    </g>
    <path id="路径_227" data-name="路径 227" d="M3350.285,2837.027a1.265,1.265,0,0,1-2.53,0c0-.7.566-2.382,1.265-2.382S3350.285,2836.329,3350.285,2837.027Z" transform="translate(-172.736 -360.52)" fill="#8ed2ea"/>
    <path id="路径_228" data-name="路径 228" d="M3350.285,2946.355a1.265,1.265,0,0,1-2.53,0c0-.7.566-2.382,1.265-2.382S3350.285,2945.656,3350.285,2946.355Z" transform="translate(-172.736 -464.419)" fill="#8ed2ea"/>
    <path id="路径_229" data-name="路径 229" d="M3749.479,2837.027a1.265,1.265,0,1,1-2.53,0c0-.7.566-2.382,1.265-2.382S3749.479,2836.329,3749.479,2837.027Z" transform="translate(-552.121 -360.52)" fill="#8ed2ea"/>
    <path id="路径_230" data-name="路径 230" d="M3749.479,2946.355a1.265,1.265,0,1,1-2.53,0c0-.7.566-2.382,1.265-2.382S3749.479,2945.656,3749.479,2946.355Z" transform="translate(-552.121 -464.419)" fill="#8ed2ea"/>
  </g>
</svg>
