<svg xmlns="http://www.w3.org/2000/svg" xmlns:xlink="http://www.w3.org/1999/xlink" width="40" height="37.668" viewBox="0 0 40 37.668">
  <defs>
    <clipPath id="clip-path">
      <rect id="矩形_190" data-name="矩形 190" width="40" height="37.668" fill="none"/>
    </clipPath>
  </defs>
  <g id="组_1099" data-name="组 1099" transform="translate(-4388 -2455.29)">
    <g id="组_1098" data-name="组 1098" transform="translate(4388 2455.29)">
      <path id="路径_231" data-name="路径 231" d="M4685.713,2537.261l-.49.3a.577.577,0,0,1-.607-.98l.491-.3a.577.577,0,1,1,.607.981" transform="translate(-4669.637 -2532.271)" fill="#fff"/>
      <path id="路径_232" data-name="路径 232" d="M4501.79,2482.391a18.116,18.116,0,1,1-18.14-18.09,18.105,18.105,0,0,1,18.14,18.09" transform="translate(-4461.798 -2463.864)" fill="#f46437"/>
      <path id="路径_233" data-name="路径 233" d="M4746.377,2470.078a20.812,20.812,0,0,0-2.452.167,18.157,18.157,0,0,1,0,35.845,16.484,16.484,0,0,0,2.452.167,18.095,18.095,0,0,0,0-36.179" transform="translate(-4725.79 -2469.361)" fill="#e25939"/>
      <g id="组_1097" data-name="组 1097" transform="translate(0 0)">
        <g id="组_1096" data-name="组 1096" clip-path="url(#clip-path)">
          <path id="路径_234" data-name="路径 234" d="M4561.576,2538.424l-3.558,2.387a.967.967,0,0,1-1.385-.334,1.141,1.141,0,0,1,.311-1.48l3.557-2.387a.968.968,0,0,1,1.385.334,1.142,1.142,0,0,1-.311,1.48m2.65-1.623-.5.31a.59.59,0,0,1-.621-1l.5-.311a.587.587,0,0,1,.812.191.615.615,0,0,1-.191.812" transform="translate(-4548.133 -2531.723)" fill="#fff"/>
          <path id="路径_235" data-name="路径 235" d="M4389.649,2470.127a.867.867,0,0,0,.812-.621,16.744,16.744,0,0,1,2.7-5.324.86.86,0,0,0-.74-1.385h-.024a.9.9,0,0,0-.621.334,18.1,18.1,0,0,0-2.937,5.873.846.846,0,0,0,.812,1.122h0m35.812,2.006A18.788,18.788,0,0,0,4396,2459a.857.857,0,0,0,.549,1.552h.024a.84.84,0,0,0,.43-.143,17.046,17.046,0,0,1,25.474,20.651.858.858,0,0,0,.454,1.146h.023a.854.854,0,0,0,1.1-.43,18.552,18.552,0,0,0,1.409-9.645m-3.677,12.3-.047-.048a.848.848,0,0,0-1.218.143,15.076,15.076,0,0,1-1.5,1.767.853.853,0,0,0,.072,1.241h.024a.845.845,0,0,0,1.146-.048,18.583,18.583,0,0,0,1.671-1.958.845.845,0,0,0-.144-1.1m-5.658,4.226a16.78,16.78,0,0,1-7.52,2.7c-8.046.86-16.521-5.229-18.432-13.107a16.287,16.287,0,0,1-.406-4.87.866.866,0,0,0-.859-.907.842.842,0,0,0-.859.788,16.878,16.878,0,0,0,.048,3.1,18.774,18.774,0,0,0,28.983,13.752.854.854,0,0,0,.191-1.266v-.024a.88.88,0,0,0-1.146-.167" transform="translate(-4388.001 -2455.571)" fill="#3a3a3a"/>
        </g>
      </g>
      <path id="路径_236" data-name="路径 236" d="M4575.6,2752.9l-4.689.794a.986.986,0,0,1-1.142-.771.954.954,0,0,1,.8-1.1l4.689-.794a.986.986,0,0,1,1.142.771.931.931,0,0,1-.8,1.1Zm15.6.817-4.689-.794a.954.954,0,0,1-.8-1.1.985.985,0,0,1,1.142-.771l4.689.794a.955.955,0,0,1,.8,1.1,1.034,1.034,0,0,1-1.142.771Zm0,0" transform="translate(-4560.943 -2736.335)" fill="#5a5b5b"/>
      <path id="路径_237" data-name="路径 237" d="M4903.332,3152.5h5.7" transform="translate(-4877.689 -3117.872)" fill="#8ed2ea"/>
      <path id="路径_238" data-name="路径 238" d="M4780.192,2948.853a.628.628,0,0,1-.63-.631V2944.6a.63.63,0,1,1,1.261,0v3.619a.628.628,0,0,1-.63.631Zm0,0" transform="translate(-4760.136 -2919.666)" fill="#5a5b5b"/>
    </g>
    <path id="路径_239" data-name="路径 239" d="M4572.265,2837.009a1.255,1.255,0,1,1-2.51,0c0-.693.562-2.364,1.255-2.364S4572.265,2836.315,4572.265,2837.009Z" transform="translate(-172.731 -360.504)" fill="#8ed2ea"/>
    <path id="路径_240" data-name="路径 240" d="M4572.265,3046.989a1.255,1.255,0,1,1-2.51,0c0-.693.562-2.364,1.255-2.364S4572.265,3046.3,4572.265,3046.989Z" transform="translate(-172.731 -559.934)" fill="#8ed2ea"/>
    <path id="路径_241" data-name="路径 241" d="M4572.265,2946.336a1.255,1.255,0,1,1-2.51,0c0-.693.562-2.364,1.255-2.364S4572.265,2945.643,4572.265,2946.336Z" transform="translate(-172.731 -464.399)" fill="#8ed2ea"/>
    <path id="路径_242" data-name="路径 242" d="M4971.459,2837.009a1.255,1.255,0,1,1-2.51,0c0-.693.562-2.364,1.255-2.364S4971.459,2836.315,4971.459,2837.009Z" transform="translate(-552.106 -360.504)" fill="#8ed2ea"/>
    <path id="路径_243" data-name="路径 243" d="M4971.459,2946.336a1.255,1.255,0,1,1-2.51,0c0-.693.562-2.364,1.255-2.364S4971.459,2945.643,4971.459,2946.336Z" transform="translate(-552.106 -464.399)" fill="#8ed2ea"/>
    <path id="路径_244" data-name="路径 244" d="M4971.459,3058.336a1.255,1.255,0,0,1-2.51,0c0-.693.562-2.364,1.255-2.364S4971.459,3057.643,4971.459,3058.336Z" transform="translate(-552.106 -570.731)" fill="#8ed2ea"/>
  </g>
</svg>
