<svg xmlns="http://www.w3.org/2000/svg" xmlns:xlink="http://www.w3.org/1999/xlink" width="40.958" height="38.57" viewBox="0 0 40.958 38.57">
  <defs>
    <clipPath id="clip-path">
      <rect id="矩形_171" data-name="矩形 171" width="40.958" height="38.57" fill="none"/>
    </clipPath>
  </defs>
  <g id="组_882" data-name="组 882" transform="translate(-730 -2455.29)">
    <path id="路径_143" data-name="路径 143" d="M1027.777,2537.312l-.513.318a.6.6,0,0,1-.636-1.027l.513-.318a.6.6,0,1,1,.636,1.027" transform="translate(-281.299 -76.797)" fill="#fff"/>
    <path id="路径_144" data-name="路径 144" d="M844.57,2482.807A18.506,18.506,0,1,1,826.04,2464.3a18.509,18.509,0,0,1,18.531,18.506" transform="translate(-73.621 -8.554)" fill="#f46437"/>
    <path id="路径_145" data-name="路径 145" d="M1088.493,2470.078a22.23,22.23,0,0,0-2.567.171,18.511,18.511,0,0,1,0,36.67,17.661,17.661,0,0,0,2.567.171,18.506,18.506,0,0,0,0-37.012" transform="translate(-337.859 -14.037)" fill="#c64826"/>
    <g id="组_881" data-name="组 881" transform="translate(730 2455.29)">
      <g id="组_880" data-name="组 880" transform="translate(0)" clip-path="url(#clip-path)">
        <path id="路径_146" data-name="路径 146" d="M903.7,2538.49l-3.643,2.445a.991.991,0,0,1-1.418-.342,1.169,1.169,0,0,1,.318-1.516l3.643-2.445a.991.991,0,0,1,1.418.342,1.169,1.169,0,0,1-.318,1.516m2.714-1.662-.513.318a.6.6,0,0,1-.636-1.027l.513-.318a.6.6,0,0,1,.831.2.629.629,0,0,1-.2.831" transform="translate(-889.933 -2531.627)" fill="#fff"/>
        <path id="路径_147" data-name="路径 147" d="M731.689,2470.476a.888.888,0,0,0,.831-.636,17.134,17.134,0,0,1,2.762-5.452.881.881,0,0,0-.758-1.418H734.5a.917.917,0,0,0-.636.342,18.525,18.525,0,0,0-3.007,6.014.866.866,0,0,0,.831,1.149h0m36.67,2.053a19.237,19.237,0,0,0-30.167-13.446.878.878,0,0,0,.562,1.589h.025a.857.857,0,0,0,.44-.147,17.455,17.455,0,0,1,26.084,21.146.879.879,0,0,0,.464,1.174h.024a.875.875,0,0,0,1.125-.44,19,19,0,0,0,1.442-9.876m-3.765,12.59-.049-.049a.868.868,0,0,0-1.247.146,15.432,15.432,0,0,1-1.54,1.809.873.873,0,0,0,.073,1.271h.024a.866.866,0,0,0,1.173-.049,19.023,19.023,0,0,0,1.711-2,.866.866,0,0,0-.147-1.125m-5.794,4.327a17.182,17.182,0,0,1-7.7,2.762c-8.239.88-16.917-5.354-18.873-13.421a16.668,16.668,0,0,1-.416-4.987.887.887,0,0,0-.88-.929.863.863,0,0,0-.88.807,17.349,17.349,0,0,0,.049,3.178,19.224,19.224,0,0,0,29.678,14.081.874.874,0,0,0,.2-1.3v-.024a.9.9,0,0,0-1.173-.171" transform="translate(-730.001 -2455.571)" fill="#3a3a3a"/>
      </g>
    </g>
    <path id="路径_148" data-name="路径 148" d="M952.537,2804.677a1.961,1.961,0,0,1-1.956-1.956v-14.277a1.956,1.956,0,0,1,3.911,0v14.277a1.946,1.946,0,0,1-1.956,1.956Zm-16.844,0a1.961,1.961,0,0,1-1.956-1.956v-14.277a1.956,1.956,0,0,1,3.912,0v14.277a1.946,1.946,0,0,1-1.956,1.956Zm0,0" transform="translate(-193.396 -314.387)" fill="#8ed2ea"/>
    <path id="路径_149" data-name="路径 149" d="M917.638,2752.993l-4.718.831a.993.993,0,1,1-.342-1.956l4.718-.831a1,1,0,0,1,1.149.807.97.97,0,0,1-.807,1.149Zm15.695.855-4.718-.831a.993.993,0,1,1,.342-1.956l4.718.831a1,1,0,0,1,.807,1.149,1.042,1.042,0,0,1-1.149.807Zm0,0" transform="translate(-172.529 -280.719)" fill="#5a5b5b"/>
    <path id="路径_150" data-name="路径 150" d="M914.449,3155.12h-5.965a.271.271,0,0,1-.269-.269v-2.078a.271.271,0,0,1,.269-.269h5.965a.271.271,0,0,1,.269.269v2.078a.271.271,0,0,1-.269.269Zm0,0" transform="translate(-169.169 -661.823)" fill="#8ed2ea"/>
    <path id="路径_151" data-name="路径 151" d="M924.939,3127.059h-3.2a1,1,0,1,1,0-2h3.2a1.007,1.007,0,0,1,1,1,.991.991,0,0,1-1,1Zm18.237,2h-5.965a.271.271,0,0,1-.269-.269v-2.078a.271.271,0,0,1,.269-.269h5.965a.271.271,0,0,1,.269.269v2.078a.271.271,0,0,1-.269.269Zm0,0" transform="translate(-181.052 -635.767)" fill="#8ed2ea"/>
    <path id="路径_152" data-name="路径 152" d="M1256.764,3127.059h-3.2a1,1,0,1,1,0-2h3.2a1.007,1.007,0,0,1,1,1,.991.991,0,0,1-1,1Zm0,0" transform="translate(-496.033 -635.767)" fill="#8ed2ea"/>
    <path id="路径_153" data-name="路径 153" d="M1122.222,2949.082a.657.657,0,0,1-.66-.66v-3.789a.66.66,0,0,1,1.32,0v3.789a.657.657,0,0,1-.66.66Zm0,0" transform="translate(-371.686 -463.877)" fill="#5a5b5b"/>
  </g>
</svg>
